<svg xmlns="http://www.w3.org/2000/svg" viewBox="0 0 206.5 220" width="100%" height="100%">
  <!-- Adidas Trefoil Leaves -->
  <path d="M104 0c-3.5 0-14.7 18.5-19.7 32.5-5 14.2-5.8 19-5.9 35.5l-.1 15.8 25.2-.1h26.4c1.6 0 .4-30.7-1.4-38C124.4 29.8 115.2 10.5 108 2.7c-1.4-1.5-3.2-2.7-4-2.7z" fill="#000000" />
  <path d="M1.6 48.4c.6 9.4 3 18.7 7.5 29.1 1.4 3.3 2.7 6.1 2.8 6.3.3.5 60.4.8 60.4.3 0-1.1-6.1-8.4-12.9-15.4C45.7 54.5 23.4 42.4 7 40.1l-6-.8.6 9.1z" fill="#000000" />
  <path d="M200.1 40c-13.9 2.4-34.2 12.5-46.5 23.3-4 3.5-18.3 19.6-18.3 20.6 0 .3 13.4.5 29.7.4l29.8-.2 2.3-4.1c4.8-8.3 8.4-20.9 8.9-31.3.3-5.4.2-9.6-.3-9.6-.5.1-3 .5-5.6.9z" fill="#000000" />
  <path d="M17.3 93.9c0 .4.9 2 2.1 3.5l2.1 2.6 82.5-.2 82.5-.3 2.6-3.3 2.5-3.2h-87.2c-48.3 0-87.1.4-87.1.9z" fill="#000000" />
  <path d="M30.9 111.2c1 1.3 2.6 2.8 3.4 3.5 2 1.6 134.7 1.9 138.2.2 1.3-.6 3.1-2.1 4.1-3.5l1.8-2.4H29l1.9 2.2z" fill="#000000" />
  <path d="M50.3 126.2c5.9 5 30.8 14.8 37.7 14.8 1 0 1.3-1.8 1.3-6.9 0-10.9 1.7-10.1-21.4-10.1l-20.1.1 2.5 2.1z" fill="#000000" />
  <path d="M93.5 128.2c1.2 2.4 4 6.4 6.1 9.1 4.6 5.5 4.6 5.5 11.1-3.7 7.1-10.1 7.5-9.6-7-9.6H91.2l2.3 4.2z" fill="#000000" />
  <path d="M118.9 127.1c-.3 1.7-.6 5.6-.6 8.6v5.5l3.8-.6c11.1-2 28.3-9.1 35.2-14.6l2.5-2h-40.2l-.7 3.1z" fill="#000000" />

  <!-- Centered Clean Text Labels -->
  <text x="103.25" y="178" font-family="'Inter', system-ui, sans-serif" font-weight="bold" font-size="28" fill="#000000" text-anchor="middle" letter-spacing="-1.5px">adidas</text>
  <text x="103.25" y="210" font-family="'Inter', system-ui, sans-serif" font-weight="900" font-size="24" fill="#000000" text-anchor="middle" letter-spacing="4px">TERREX</text>
</svg>
